<svg width="67" height="67" viewBox="0 0 67 67" fill="none" xmlns="http://www.w3.org/2000/svg">
<rect width="67" height="67" rx="12" fill="#38D79F" fill-opacity="0.08"/>
<path fill-rule="evenodd" clip-rule="evenodd" d="M40.6376 37.9288C40.1669 37.6529 39.5883 37.6587 39.1199 37.9369L36.7478 39.3502C36.2168 39.6668 35.5536 39.6297 35.0666 39.2494C34.2249 38.592 32.8696 37.4859 31.6904 36.3068C30.5113 35.1277 29.4052 33.7723 28.7479 32.9306C28.3676 32.4436 28.3305 31.7804 28.647 31.2494L30.0603 28.8773C30.3397 28.4089 30.342 27.8257 30.0661 27.355L26.5855 21.4095C26.2482 20.8344 25.578 20.5515 24.9299 20.7104C24.3004 20.8634 23.483 21.2367 22.6262 22.0947C19.9433 24.7776 18.5184 29.3028 28.6076 39.392C38.6968 49.4812 43.2208 48.0574 45.9048 45.3734C46.7639 44.5143 47.1361 43.6957 47.2903 43.065C47.4468 42.418 47.1686 41.7525 46.5947 41.4163C45.1616 40.5781 42.0706 38.7682 40.6376 37.9288Z" fill="#38D79F"/>
</svg>
