<svg width="67" height="67" viewBox="0 0 67 67" fill="none" xmlns="http://www.w3.org/2000/svg">
<rect width="67" height="67" rx="12" fill="#FFC633" fill-opacity="0.08"/>
<path fill-rule="evenodd" clip-rule="evenodd" d="M20.6667 23.1514C20.6667 22.3243 20.6667 21.9107 20.841 21.6556C20.9932 21.4327 21.2291 21.2808 21.495 21.2345C21.7993 21.1814 22.1758 21.3526 22.9288 21.6948L43.5911 31.0868C45.6272 32.0123 46.6452 32.475 46.961 33.1162C47.2355 33.6734 47.2355 34.3265 46.961 34.8837C46.6452 35.5249 45.6272 35.9876 43.5911 36.9131L22.9288 46.3051C22.1758 46.6473 21.7993 46.8185 21.495 46.7654C21.2291 46.7191 20.9932 46.5672 20.841 46.3443C20.6667 46.0892 20.6667 45.6756 20.6667 44.8485V40.6017C20.6667 39.2 20.6667 38.4991 20.9178 37.9247C21.1392 37.4181 21.4963 36.9825 21.9496 36.6661C22.4636 36.3072 23.1509 36.1698 24.5254 35.8949L34.0001 34L24.5254 32.105C23.1509 31.8301 22.4636 31.6927 21.9496 31.3338C21.4963 31.0174 21.1392 30.5818 20.9178 30.0753C20.6667 29.5008 20.6667 28.7999 20.6667 27.3982V23.1514Z" fill="#FFC633"/>
</svg>
