<svg width="18" height="18" viewBox="0 0 18 18" fill="none" xmlns="http://www.w3.org/2000/svg">
<path d="M6.74918 12.0013V8.56482" stroke="#F66F47" stroke-linecap="round" stroke-linejoin="round"/>
<path d="M9.00016 12.0013V8.56482" stroke="#F66F47" stroke-linecap="round" stroke-linejoin="round"/>
<path d="M11.2511 12.0013V8.56482" stroke="#F66F47" stroke-linecap="round" stroke-linejoin="round"/>
<path d="M5.99878 12.0013H12.0013" stroke="#F66F47" stroke-linecap="round" stroke-linejoin="round"/>
<path fill-rule="evenodd" clip-rule="evenodd" d="M5.99878 8.56485H12.0013V7.22704L9.00003 5.99878L5.99878 7.22704V8.56485Z" stroke="#F66F47" stroke-linecap="round" stroke-linejoin="round"/>
<path d="M15.0026 5.99876C15.0026 4.7556 16.0104 3.74782 17.2536 3.74782C16.0104 3.74782 15.0026 2.74005 15.0026 1.49689C15.0026 2.74005 13.9949 3.74782 12.7517 3.74782C13.9949 3.74782 15.0026 4.7556 15.0026 5.99876" stroke="#F66F47" stroke-linecap="round" stroke-linejoin="round"/>
<path d="M15.7529 9V12.0013C15.7529 14.0732 14.0733 15.7528 12.0014 15.7528H5.99888C3.92695 15.7528 2.24731 14.0732 2.24731 12.0013V5.99875C2.24731 3.92682 3.92695 2.24719 5.99888 2.24719H10.5008" stroke="#F66F47" stroke-linecap="round" stroke-linejoin="round"/>
</svg>
