<svg width="375" height="260" viewBox="0 0 375 260" fill="none" xmlns="http://www.w3.org/2000/svg">
<g filter="url(#filter0_d_207_225)">
<rect x="24" y="14" width="327" height="200" rx="20" fill="url(#paint0_linear_207_225)"/>
</g>
<path d="M50.736 101.344L51.648 99.52L52.544 101.344L53.456 100.704L52.128 99.248L54.032 98.96L53.68 97.904L51.952 98.672L52.208 96.848H51.104L51.36 98.672L49.632 97.904L49.28 98.96L51.168 99.248L49.84 100.704L50.736 101.344ZM58.0798 101.344L58.9918 99.52L59.8878 101.344L60.7998 100.704L59.4718 99.248L61.3758 98.96L61.0238 97.904L59.2958 98.672L59.5518 96.848H58.4478L58.7038 98.672L56.9758 97.904L56.6238 98.96L58.5118 99.248L57.1838 100.704L58.0798 101.344ZM65.4235 101.344L66.3355 99.52L67.2315 101.344L68.1435 100.704L66.8155 99.248L68.7195 98.96L68.3675 97.904L66.6395 98.672L66.8955 96.848H65.7915L66.0475 98.672L64.3195 97.904L63.9675 98.96L65.8555 99.248L64.5275 100.704L65.4235 101.344ZM72.7673 101.344L73.6793 99.52L74.5753 101.344L75.4873 100.704L74.1593 99.248L76.0633 98.96L75.7113 97.904L73.9833 98.672L74.2393 96.848H73.1353L73.3913 98.672L71.6633 97.904L71.3113 98.96L73.1993 99.248L71.8713 100.704L72.7673 101.344ZM84.486 101.344L85.398 99.52L86.294 101.344L87.206 100.704L85.878 99.248L87.782 98.96L87.43 97.904L85.702 98.672L85.958 96.848H84.854L85.11 98.672L83.382 97.904L83.03 98.96L84.918 99.248L83.59 100.704L84.486 101.344ZM91.8298 101.344L92.7418 99.52L93.6378 101.344L94.5498 100.704L93.2218 99.248L95.1258 98.96L94.7738 97.904L93.0458 98.672L93.3018 96.848H92.1978L92.4538 98.672L90.7258 97.904L90.3738 98.96L92.2618 99.248L90.9338 100.704L91.8298 101.344ZM99.1735 101.344L100.086 99.52L100.982 101.344L101.894 100.704L100.566 99.248L102.47 98.96L102.118 97.904L100.39 98.672L100.646 96.848H99.5415L99.7975 98.672L98.0695 97.904L97.7175 98.96L99.6055 99.248L98.2775 100.704L99.1735 101.344ZM106.517 101.344L107.429 99.52L108.325 101.344L109.237 100.704L107.909 99.248L109.813 98.96L109.461 97.904L107.733 98.672L107.989 96.848H106.885L107.141 98.672L105.413 97.904L105.061 98.96L106.949 99.248L105.621 100.704L106.517 101.344ZM122.611 101.344L123.523 99.52L124.419 101.344L125.331 100.704L124.003 99.248L125.907 98.96L125.555 97.904L123.827 98.672L124.083 96.848H122.979L123.235 98.672L121.507 97.904L121.155 98.96L123.043 99.248L121.715 100.704L122.611 101.344ZM129.955 101.344L130.867 99.52L131.763 101.344L132.675 100.704L131.347 99.248L133.251 98.96L132.899 97.904L131.171 98.672L131.427 96.848H130.323L130.579 98.672L128.851 97.904L128.499 98.96L130.387 99.248L129.059 100.704L129.955 101.344ZM137.299 101.344L138.211 99.52L139.107 101.344L140.019 100.704L138.691 99.248L140.595 98.96L140.243 97.904L138.515 98.672L138.771 96.848H137.667L137.923 98.672L136.195 97.904L135.843 98.96L137.731 99.248L136.403 100.704L137.299 101.344ZM144.642 101.344L145.554 99.52L146.45 101.344L147.362 100.704L146.034 99.248L147.938 98.96L147.586 97.904L145.858 98.672L146.114 96.848H145.01L145.266 98.672L143.538 97.904L143.186 98.96L145.074 99.248L143.746 100.704L144.642 101.344ZM158.377 96.848V97.792C158.377 98.448 158.009 98.64 157.449 98.64H155.593V99.728H158.377V108H159.481V96.848H158.377ZM168.109 100.848C167.421 100.72 166.717 100.832 166.141 101.04L168.717 96.848H167.469L164.109 102.448C163.757 103.024 163.533 103.744 163.533 104.432C163.533 106.464 165.245 108.128 167.325 108.128C169.421 108.128 171.117 106.448 171.117 104.416C171.117 102.624 169.789 101.152 168.109 100.848ZM167.325 107.072C165.837 107.072 164.653 105.872 164.653 104.416C164.653 102.96 165.853 101.776 167.325 101.776C168.797 101.776 169.997 102.96 169.997 104.416C169.997 105.872 168.797 107.072 167.325 107.072ZM176.387 96.72C174.291 96.72 172.595 98.4 172.595 100.432C172.595 102.224 173.923 103.696 175.603 104C176.291 104.128 176.995 104.016 177.571 103.808L174.995 108H176.243L179.603 102.4C179.955 101.824 180.179 101.104 180.179 100.416C180.179 98.384 178.467 96.72 176.387 96.72ZM176.387 103.072C174.915 103.072 173.715 101.888 173.715 100.432C173.715 98.976 174.915 97.776 176.387 97.776C177.875 97.776 179.059 98.976 179.059 100.432C179.059 101.888 177.859 103.072 176.387 103.072ZM185.483 108.16C188.027 108.16 188.923 105.504 188.923 102.448C188.923 99.392 188.011 96.688 185.371 96.688C182.475 96.688 181.915 99.776 181.915 102.432C181.915 105.088 182.507 108.16 185.483 108.16ZM185.451 107.104C183.419 107.104 183.051 104.784 183.051 102.432C183.051 100.032 183.419 97.744 185.371 97.744C187.243 97.744 187.739 99.856 187.739 102.432C187.739 104.96 187.259 107.104 185.451 107.104Z" fill="#F7F7F7"/>
<path d="M49.408 131H51.392V126.376H53.056C55.52 126.376 56.848 125.224 56.848 123.064C56.848 120.936 55.552 119.848 53.056 119.848H49.408V131ZM51.392 124.536V121.688H52.848C54.272 121.688 54.848 122.088 54.848 123.096C54.848 124.104 54.256 124.536 52.848 124.536H51.392ZM59.9898 131.16C60.3578 131.16 60.7898 131.08 61.2218 130.92V129.384C60.9978 129.448 60.7898 129.48 60.6138 129.48C60.2618 129.48 60.0538 129.336 60.0538 128.984V119.848H58.1338V129.112C58.1338 130.52 58.9178 131.16 59.9898 131.16ZM65.676 122.952C64.236 122.952 63.068 123.512 62.124 124.648L63.516 125.816C64.092 125.048 64.844 124.632 65.644 124.632C66.556 124.632 67.132 125.16 67.132 126.024V126.248H65.164C64.268 126.248 63.596 126.36 63.068 126.6C62.3 126.952 61.884 127.656 61.884 128.584C61.884 130.088 63.068 131.16 64.732 131.16C65.772 131.16 66.668 130.712 67.132 129.976L67.292 131H69.052V126.024C69.052 124.12 67.756 122.952 65.676 122.952ZM65.036 129.528C64.268 129.528 63.804 129.176 63.804 128.616C63.804 128.328 63.916 128.104 64.124 127.96C64.38 127.768 64.764 127.688 65.42 127.688H67.132C67.132 128.712 66.188 129.528 65.036 129.528ZM75.2343 124.632V123.112H73.2663V120.168L71.3463 121.592V123.112H70.0663V124.632H71.3463V128.792C71.3463 130.472 72.4663 131.16 73.7943 131.16C74.2743 131.16 74.7543 131.08 75.2343 130.92V129.384C74.8823 129.496 74.5463 129.56 74.2743 129.56C73.6503 129.56 73.2663 129.272 73.2663 128.648V124.632H75.2343ZM76.8689 121.624H78.8849V119.848H76.8689V121.624ZM76.9169 131H78.8369V123.112H76.9169V131ZM85.3771 122.952C84.4171 122.952 83.5531 123.272 82.9931 124.024V123.112H81.0731V131H82.9931V127.848C82.9931 126.44 82.9931 124.632 84.7851 124.632C86.2411 124.632 86.2411 125.848 86.2411 126.392V131H88.1611V125.912C88.1611 124.04 87.1531 122.952 85.3771 122.952ZM95.1429 123.112V126.104C95.1429 127.512 95.1429 129.48 93.3509 129.48C91.8949 129.48 91.8949 128.104 91.8949 127.56V123.112H89.9749V128.04C89.9749 129.72 90.8069 131.16 92.7909 131.16C93.7189 131.16 94.5829 130.84 95.1429 130.088V131H97.0629V123.112H95.1429ZM108.124 122.952C107.1 122.952 106.188 123.32 105.58 124.504C105.1 123.288 104.14 122.952 103.276 122.952C102.492 122.952 101.676 123.224 101.164 124.104V123.112H99.3075L99.3235 131H101.244V127.992C101.244 126.408 101.196 124.632 102.812 124.632C104.06 124.632 104.14 125.928 104.14 126.552V131H106.06V127.992C106.06 126.408 105.996 124.632 107.612 124.632C108.876 124.632 108.956 125.928 108.956 126.552V131H110.876V125.976C110.876 124.392 110.028 122.952 108.124 122.952ZM117.096 131H119.08V126.376H120.744C123.208 126.376 124.536 125.224 124.536 123.064C124.536 120.936 123.24 119.848 120.744 119.848H117.096V131ZM119.08 124.536V121.688H120.536C121.96 121.688 122.536 122.088 122.536 123.096C122.536 124.104 121.944 124.536 120.536 124.536H119.08ZM127.677 131.16C128.045 131.16 128.477 131.08 128.909 130.92V129.384C128.685 129.448 128.477 129.48 128.301 129.48C127.949 129.48 127.741 129.336 127.741 128.984V119.848H125.821V129.112C125.821 130.52 126.605 131.16 127.677 131.16ZM135.299 123.112V126.104C135.299 127.512 135.299 129.48 133.507 129.48C132.051 129.48 132.051 128.104 132.051 127.56V123.112H130.131V128.04C130.131 129.72 130.963 131.16 132.947 131.16C133.875 131.16 134.739 130.84 135.299 130.088V131H137.219V123.112H135.299ZM141.944 131.16C143.432 131.16 145.016 130.36 145.016 128.52C145.016 125.64 140.888 126.344 140.888 125.144C140.888 124.776 141.272 124.472 141.896 124.472C142.76 124.472 143.192 124.984 143.464 125.48L144.952 124.664C144.36 123.592 143.32 122.952 141.96 122.952C140.44 122.952 139.064 123.736 139.064 125.256C139.064 128.184 143.128 127.304 143.128 128.632C143.128 129.048 142.744 129.56 141.848 129.56C140.792 129.56 140.376 128.84 140.168 128.264L138.632 128.952C139.016 130.152 140.28 131.16 141.944 131.16Z" fill="#FEFEFE"/>
<path d="M52.608 183.208C54.896 183.208 56.48 181.832 56.48 179.752C56.48 178.168 55.696 177.32 53.312 176.408C51.632 175.752 51.088 175.336 51.088 174.6C51.088 173.912 51.696 173.384 52.496 173.384C53.248 173.384 53.904 173.832 54.288 174.664L55.952 173.64C55.248 172.296 54.064 171.608 52.56 171.608C50.48 171.608 49.088 172.84 49.088 174.648C49.088 176.264 49.92 177.112 52.256 178.024C53.904 178.68 54.48 179.16 54.48 179.928C54.48 180.872 53.76 181.432 52.64 181.432C51.344 181.432 50.464 180.68 50.32 179.352L48.336 179.848C48.656 181.88 50.384 183.208 52.608 183.208ZM62.8148 175.112V178.104C62.8148 179.512 62.8148 181.48 61.0228 181.48C59.5668 181.48 59.5668 180.104 59.5668 179.56V175.112H57.6468V180.04C57.6468 181.72 58.4788 183.16 60.4628 183.16C61.3908 183.16 62.2548 182.84 62.8148 182.088V183H64.7348V175.112H62.8148ZM71.2834 174.952C70.3234 174.952 69.4594 175.272 68.8994 176.024V175.112H66.9794V183H68.8994V179.848C68.8994 178.44 68.8994 176.632 70.6914 176.632C72.1474 176.632 72.1474 177.848 72.1474 178.392V183H74.0674V177.912C74.0674 176.04 73.0594 174.952 71.2834 174.952ZM80.4396 174.952C79.4796 174.952 78.6156 175.272 78.0556 176.024V175.112H76.1356V183H78.0556V179.848C78.0556 178.44 78.0556 176.632 79.8476 176.632C81.3036 176.632 81.3036 177.848 81.3036 178.392V183H83.2236V177.912C83.2236 176.04 82.2156 174.952 80.4396 174.952ZM85.6313 186.264H87.7113L92.1913 175.112H90.0793L88.0633 180.584L86.0633 175.112H83.9512L87.0393 182.792L85.6313 186.264ZM104.304 183H106.48L102.032 171.848H100.528L96.064 183H98.24L99.088 180.696H103.456L104.304 183ZM99.776 178.856L101.28 174.792L102.784 178.856H99.776ZM109.011 183H110.595L113.811 175.112H111.731L109.795 180.504L107.891 175.112H105.795L109.011 183ZM121.34 178.952C121.34 176.76 120.156 174.952 117.708 174.952C115.084 174.952 113.964 177.032 113.964 179.096C113.964 181.208 115.116 183.16 117.836 183.16C119.164 183.16 120.204 182.696 121.068 181.736L119.74 180.568C119.196 181.192 118.556 181.416 117.852 181.416C116.604 181.416 115.964 180.728 115.884 179.688H121.292C121.324 179.432 121.34 179.192 121.34 178.952ZM115.868 178.168C115.98 177.384 116.524 176.552 117.692 176.552C118.7 176.552 119.468 177.16 119.5 178.168H115.868ZM122.869 173.624H124.885V171.848H122.869V173.624ZM122.917 183H124.837V175.112H122.917V183ZM131.121 174.952C130.225 174.952 129.345 175.48 129.009 176.456V175.112H127.073V183H128.993V179.032C128.993 177.544 129.569 176.824 130.737 176.824C131.121 176.824 131.425 176.92 131.697 177.096L132.625 175.4C132.113 175.08 131.649 174.952 131.121 174.952ZM136.446 183.16C138.878 183.16 140.398 181.272 140.398 179.048C140.398 176.808 138.878 174.952 136.446 174.952C133.998 174.952 132.494 176.808 132.494 179.048C132.494 181.272 133.998 183.16 136.446 183.16ZM136.446 181.48C134.99 181.48 134.414 180.328 134.414 179.048C134.414 177.752 134.99 176.632 136.446 176.632C137.902 176.632 138.478 177.752 138.478 179.048C138.478 180.328 137.902 181.48 136.446 181.48Z" fill="#FEFEFE"/>
<path d="M262.596 132H268.994V131.076H263.59V127.492H268.448V126.568H263.59V123.166H268.994V122.242H262.596V132ZM270.21 132H271.4L273.374 129.2L275.348 132H276.538L274.004 128.542L276.524 125.098H275.348L273.374 127.87L271.386 125.098H270.21L272.73 128.542L270.21 132ZM281.409 124.972C280.429 124.972 279.645 125.35 279.127 126.022V125.098H278.161V134.856H279.127V131.076C279.631 131.72 280.401 132.112 281.409 132.112C283.425 132.112 284.475 130.6 284.475 128.542C284.475 126.386 283.327 124.972 281.409 124.972ZM281.269 131.258C279.813 131.258 279.043 130.11 279.043 128.542C279.043 126.904 279.883 125.826 281.269 125.826C282.669 125.826 283.509 126.904 283.509 128.542C283.509 130.11 282.739 131.258 281.269 131.258ZM293.059 132.14C295.285 132.14 296.069 129.816 296.069 127.142C296.069 124.468 295.271 122.102 292.961 122.102C290.427 122.102 289.937 124.804 289.937 127.128C289.937 129.452 290.455 132.14 293.059 132.14ZM293.031 131.216C291.253 131.216 290.931 129.186 290.931 127.128C290.931 125.028 291.253 123.026 292.961 123.026C294.599 123.026 295.033 124.874 295.033 127.128C295.033 129.34 294.613 131.216 293.031 131.216ZM301.06 122.242V123.068C301.06 123.642 300.738 123.81 300.248 123.81H298.624V124.762H301.06V132H302.026V122.242H301.06ZM304.972 134.954H305.882L310.894 122.242H309.97L304.972 134.954ZM313.209 131.09C315.687 129.536 317.899 127.548 317.899 125.056C317.899 123.18 316.709 122.102 314.973 122.102C312.957 122.102 311.851 123.558 311.851 125.476L312.803 125.546C312.817 124.104 313.489 123.026 314.973 123.026C316.233 123.026 316.919 123.81 316.919 125.042C316.919 127.632 313.881 129.676 311.599 131.104V132H318.347V131.09H313.209ZM321.153 131.09C323.631 129.536 325.843 127.548 325.843 125.056C325.843 123.18 324.653 122.102 322.917 122.102C320.901 122.102 319.795 123.558 319.795 125.476L320.747 125.546C320.761 124.104 321.433 123.026 322.917 123.026C324.177 123.026 324.863 123.81 324.863 125.042C324.863 127.632 321.825 129.676 319.543 131.104V132H326.291V131.09H321.153Z" fill="#FEFEFE"/>
<mask id="mask0_207_225" style="mask-type:alpha" maskUnits="userSpaceOnUse" x="24" y="14" width="327" height="200">
<rect x="24" y="14" width="327" height="200" rx="20" fill="url(#paint1_linear_207_225)"/>
</mask>
<g mask="url(#mask0_207_225)">
<g opacity="0.07">
<path d="M265.433 63.1248H253.201L260.852 14.8746H273.083L265.433 63.1248Z" fill="white"/>
<path d="M309.775 16.0542C307.363 15.0779 303.536 14 298.804 14C286.725 14 278.218 20.5699 278.166 29.9629C278.066 36.893 284.256 40.7421 288.886 43.0528C293.619 45.414 295.228 46.9552 295.228 49.0599C295.179 52.2923 291.404 53.7823 287.882 53.7823C282.998 53.7823 280.381 53.0141 276.405 51.2157L274.794 50.4448L273.083 61.2759C275.951 62.609 281.237 63.792 286.725 63.8439C299.559 63.8439 307.915 57.3756 308.014 47.3659C308.063 41.8733 304.794 37.6646 297.747 34.2254C293.468 32.0177 290.848 30.5291 290.848 28.2702C290.898 26.2167 293.064 24.1134 297.894 24.1134C301.87 24.0104 304.792 24.9853 307.005 25.9609L308.112 26.4732L309.775 16.0542Z" fill="white"/>
<path fill-rule="evenodd" clip-rule="evenodd" d="M331.67 14.8746H341.132L351 63.1241H339.674C339.674 63.1241 338.566 57.5803 338.215 55.8863H322.51C322.056 57.1689 319.943 63.1241 319.943 63.1241H307.108L325.277 18.878C326.536 15.7465 328.753 14.8746 331.67 14.8746ZM330.916 32.5315C330.916 32.5315 327.04 43.2596 326.033 46.0315H336.2C335.697 43.6191 333.381 32.0696 333.381 32.0696L332.526 27.9121C332.166 28.9826 331.645 30.4545 331.294 31.4472C331.056 32.1203 330.896 32.5731 330.916 32.5315Z" fill="white"/>
<path d="M242.985 14.8746L231.005 47.7766L229.696 41.1037C227.482 33.4041 220.536 25.0385 212.785 20.879L223.757 63.0736H236.692L255.919 14.8746H242.985V14.8746Z" fill="white"/>
<path d="M219.882 14.8746H200.201L200 15.8495C215.352 19.8536 225.519 29.5051 229.696 41.1058L225.418 18.9305C224.714 15.8489 222.549 14.9763 219.882 14.8746Z" fill="white"/>
</g>
</g>
<path fill-rule="evenodd" clip-rule="evenodd" d="M326.356 188.485C326.315 188.468 326.273 188.459 326.226 188.459C326.179 188.459 326.136 188.468 326.095 188.485C326.054 188.502 326.019 188.525 325.989 188.555C325.959 188.584 325.935 188.619 325.918 188.659C325.901 188.698 325.892 188.741 325.892 188.785C325.892 188.83 325.901 188.873 325.918 188.912C325.935 188.951 325.959 188.986 325.989 189.016C326.019 189.045 326.054 189.068 326.095 189.086C326.136 189.103 326.179 189.112 326.226 189.112C326.273 189.112 326.315 189.103 326.356 189.086C326.396 189.068 326.431 189.045 326.461 189.016C326.491 188.986 326.515 188.951 326.532 188.912C326.549 188.873 326.558 188.83 326.558 188.785C326.558 188.741 326.549 188.698 326.532 188.659C326.515 188.619 326.491 188.584 326.461 188.555C326.431 188.525 326.396 188.502 326.356 188.485ZM326.226 189.04C326.262 189.04 326.295 189.033 326.324 189.02C326.355 189.006 326.382 188.988 326.405 188.965C326.427 188.943 326.445 188.916 326.459 188.885C326.471 188.854 326.478 188.821 326.478 188.785C326.478 188.75 326.471 188.717 326.459 188.686C326.445 188.656 326.427 188.628 326.405 188.605C326.382 188.583 326.355 188.565 326.324 188.551C326.295 188.539 326.262 188.532 326.226 188.532C326.191 188.532 326.157 188.539 326.126 188.551C326.095 188.565 326.067 188.583 326.045 188.605C326.022 188.628 326.004 188.656 325.991 188.686C325.978 188.717 325.972 188.75 325.972 188.785C325.972 188.821 325.978 188.854 325.991 188.885C326.004 188.916 326.022 188.943 326.045 188.965C326.067 188.988 326.095 189.006 326.126 189.02C326.157 189.033 326.191 189.04 326.226 189.04ZM326.335 188.659C326.314 188.642 326.284 188.633 326.246 188.633H326.106V188.936H326.17V188.822H326.2L326.292 188.936H326.369L326.27 188.822C326.302 188.818 326.325 188.807 326.342 188.792C326.359 188.775 326.367 188.755 326.367 188.73C326.367 188.7 326.357 188.676 326.335 188.659ZM326.17 188.771V188.69H326.245C326.262 188.69 326.276 188.693 326.286 188.7C326.295 188.706 326.301 188.716 326.301 188.73C326.301 188.743 326.295 188.754 326.286 188.76C326.276 188.767 326.262 188.771 326.245 188.771H326.17ZM295.606 187.294C295.606 186.717 295.984 186.243 296.602 186.243C297.192 186.243 297.59 186.696 297.59 187.294C297.59 187.891 297.192 188.345 296.602 188.345C295.984 188.345 295.606 187.871 295.606 187.294ZM298.263 185.653V187.294V188.935H297.549V188.536C297.323 188.832 296.98 189.017 296.513 189.017C295.592 189.017 294.871 188.297 294.871 187.294C294.871 186.292 295.592 185.57 296.513 185.57C296.98 185.57 297.323 185.756 297.549 186.051V185.653H298.263ZM322.378 187.294C322.378 186.717 322.756 186.243 323.374 186.243C323.965 186.243 324.363 186.696 324.363 187.294C324.363 187.891 323.965 188.345 323.374 188.345C322.756 188.345 322.378 187.871 322.378 187.294ZM325.036 184.335V187.294V188.935H324.322V188.536C324.096 188.832 323.752 189.017 323.285 189.017C322.365 189.017 321.643 188.297 321.643 187.294C321.643 186.292 322.365 185.57 323.285 185.57C323.752 185.57 324.096 185.756 324.322 186.051V184.335H325.036ZM307.121 186.209C307.581 186.209 307.876 186.498 307.952 187.005H306.249C306.325 186.531 306.613 186.209 307.121 186.209ZM305.501 187.294C305.501 186.271 306.173 185.57 307.135 185.57C308.055 185.57 308.687 186.271 308.694 187.294C308.694 187.39 308.687 187.479 308.68 187.568H306.242C306.345 188.159 306.764 188.372 307.224 188.372C307.553 188.372 307.904 188.248 308.179 188.029L308.529 188.558C308.13 188.894 307.678 189.017 307.183 189.017C306.201 189.017 305.501 188.337 305.501 187.294ZM315.752 187.294C315.752 186.717 316.13 186.243 316.748 186.243C317.338 186.243 317.737 186.696 317.737 187.294C317.737 187.891 317.338 188.345 316.748 188.345C316.13 188.345 315.752 187.871 315.752 187.294ZM318.409 185.653V187.294V188.935H317.696V188.536C317.469 188.832 317.126 189.017 316.659 189.017C315.739 189.017 315.017 188.297 315.017 187.294C315.017 186.292 315.739 185.57 316.659 185.57C317.126 185.57 317.469 185.756 317.696 186.051V185.653H318.409ZM311.722 187.294C311.722 188.29 312.415 189.017 313.473 189.017C313.967 189.017 314.297 188.907 314.653 188.626L314.311 188.049C314.043 188.242 313.761 188.345 313.452 188.345C312.882 188.337 312.463 187.926 312.463 187.294C312.463 186.662 312.882 186.25 313.452 186.243C313.761 186.243 314.043 186.346 314.311 186.539L314.653 185.962C314.297 185.68 313.967 185.57 313.473 185.57C312.415 185.57 311.722 186.298 311.722 187.294ZM320.057 186.051C320.243 185.763 320.511 185.57 320.923 185.57C321.067 185.57 321.273 185.598 321.431 185.66L321.211 186.333C321.06 186.271 320.909 186.25 320.765 186.25C320.298 186.25 320.065 186.552 320.065 187.095V188.935H319.35V185.653H320.057V186.051ZM301.793 185.914C301.449 185.687 300.976 185.57 300.454 185.57C299.623 185.57 299.087 185.969 299.087 186.621C299.087 187.156 299.486 187.486 300.22 187.589L300.557 187.637C300.949 187.692 301.133 187.795 301.133 187.981C301.133 188.235 300.872 188.379 300.385 188.379C299.891 188.379 299.534 188.221 299.293 188.036L298.957 188.591C299.348 188.88 299.843 189.017 300.378 189.017C301.326 189.017 301.875 188.571 301.875 187.946C301.875 187.369 301.443 187.067 300.728 186.964L300.392 186.916C300.083 186.875 299.836 186.814 299.836 186.594C299.836 186.353 300.069 186.209 300.46 186.209C300.879 186.209 301.285 186.367 301.484 186.491L301.793 185.914ZM310.136 186.051C310.321 185.763 310.589 185.57 311 185.57C311.145 185.57 311.351 185.598 311.509 185.66L311.289 186.333C311.138 186.271 310.987 186.25 310.843 186.25C310.376 186.25 310.142 186.552 310.142 187.095V188.935H309.429V185.653H310.136V186.051ZM304.91 185.653H303.743V184.657H303.022V185.653H302.356V186.305H303.022V187.802C303.022 188.564 303.317 189.017 304.161 189.017C304.471 189.017 304.828 188.921 305.054 188.763L304.848 188.152C304.635 188.275 304.402 188.337 304.216 188.337C303.86 188.337 303.743 188.117 303.743 187.788V186.305H304.91V185.653ZM294.24 186.875V188.935H293.518V187.108C293.518 186.552 293.285 186.243 292.798 186.243C292.324 186.243 291.994 186.546 291.994 187.115V188.935H291.273V187.108C291.273 186.552 291.033 186.243 290.559 186.243C290.071 186.243 289.755 186.546 289.755 187.115V188.935H289.035V185.653H289.749V186.058C290.017 185.673 290.36 185.57 290.71 185.57C291.212 185.57 291.568 185.79 291.795 186.154C292.097 185.694 292.53 185.563 292.949 185.57C293.746 185.577 294.24 186.099 294.24 186.875Z" fill="white"/>
<path fill-rule="evenodd" clip-rule="evenodd" d="M325.818 177.622V178.02H325.73V177.622H325.569V177.541H325.978V177.622H325.818ZM326.611 177.54V178.02H326.523V177.658L326.387 177.97H326.296L326.16 177.658V178.02H326.072V177.54H326.197L326.341 177.87L326.486 177.54H326.611Z" fill="white"/>
<path d="M312.401 180.082H301.585V160.645H312.401V180.082Z" fill="#FF5F00"/>
<path d="M302.278 170.362C302.278 166.419 304.125 162.907 306.999 160.643C304.897 158.988 302.244 158 299.36 158C292.534 158 287 163.534 287 170.362C287 177.189 292.534 182.724 299.36 182.724C302.244 182.724 304.897 181.736 306.999 180.081C304.125 177.817 302.278 174.305 302.278 170.362Z" fill="#EB001B"/>
<path d="M326.988 170.362C326.988 177.189 321.454 182.724 314.628 182.724C311.744 182.724 309.091 181.736 306.988 180.081C309.863 177.817 311.709 174.305 311.709 170.362C311.709 166.419 309.863 162.907 306.988 160.643C309.091 158.988 311.744 158 314.628 158C321.454 158 326.988 163.534 326.988 170.362Z" fill="#F79E1B"/>
<path d="M67.9024 62H53.2683C50.3584 62 48 59.6416 48 56.7317V43.2683C48 40.3584 50.3584 38 53.2683 38H67.9024C70.8123 38 73.1707 40.3584 73.1707 43.2683V56.7317C73.1707 59.6416 70.8123 62 67.9024 62Z" fill="#E9ECF4" fill-opacity="0.05"/>
<path d="M73.1707 56.2517V56.7317C73.1707 58.6505 72.1451 60.3293 70.612 61.2507C67.4265 58.3127 61.8849 51.6115 66.7445 43.7699C67.9568 41.8142 69.5953 39.8977 70.6296 38.7598C70.9059 38.9272 71.1652 39.1192 71.4052 39.334C70.4774 41.3775 68.8647 45.6712 69.4179 49.8396C69.7644 52.4509 71.26 54.5172 73.1707 56.2517Z" fill="#5ABF73"/>
<path d="M64.1574 46.9971C62.2063 52.8034 65.5207 58.6547 68.9931 61.8865C68.6413 61.9608 68.2766 62 67.9025 62H61.2598C59.5488 59.8968 55.5226 53.6744 59.7613 45.6736C61.9295 41.5819 65.7701 39.2445 68.485 38.0322C69.0832 38.0978 69.651 38.2634 70.172 38.5122C68.4411 40.1472 65.3585 43.4229 64.1574 46.9971Z" fill="#F24976"/>
<path d="M57.0774 48.3323C55.1984 53.1417 57.0311 58.8993 59.0015 62H53.2684C52.1855 62 51.1792 61.674 50.3427 61.1132C49.9137 57.8626 49.357 50.1592 52.7199 45.0958C55.158 41.425 59.3919 39.4236 64.2885 38H67.3289C64.0719 39.4862 59.3375 42.5465 57.0774 48.3323Z" fill="#1B4399"/>
<path d="M82.8507 56H85.9387C89.6507 56 91.6827 54.064 91.6827 50.512C91.6827 46.912 89.6027 44.848 85.9547 44.848H82.8507V56ZM84.2747 54.688V46.16H85.9227C88.8187 46.16 90.2427 47.584 90.2427 50.448C90.2427 53.328 88.8187 54.688 85.8107 54.688H84.2747ZM98.9285 48.112V51.536C98.9285 53.36 98.4005 54.928 96.7525 54.928C95.2645 54.928 95.1205 53.664 95.1205 52.64V48.112H93.7445V52.976C93.7445 54.832 94.5445 56.144 96.4005 56.144C97.3925 56.144 98.3685 55.76 98.9285 54.928V56H100.305V48.112H98.9285ZM106.583 49.232V48.112H104.647V45.216L103.271 46.24V48.112H101.975V49.232H103.271V54.032C103.271 55.52 104.167 56.144 105.303 56.144C105.719 56.144 106.151 56.064 106.583 55.92V54.752C106.231 54.864 105.911 54.928 105.639 54.928C105.015 54.928 104.647 54.608 104.647 53.888V49.232H106.583ZM111.46 56.144C112.932 56.144 114.1 55.344 114.628 53.904L113.364 53.424C113.092 54.368 112.372 54.928 111.444 54.928C109.876 54.928 109.204 53.568 109.204 52.08C109.204 50.592 109.876 49.184 111.444 49.184C112.356 49.184 113.076 49.76 113.396 50.72L114.708 50.192C114.084 48.688 112.9 47.968 111.444 47.968C108.996 47.968 107.796 50 107.796 52.08C107.796 54.24 109.076 56.144 111.46 56.144ZM120.435 47.968C119.331 47.968 118.419 48.416 117.891 49.184V44.848H116.515V56H117.891V52.528C117.891 50.32 118.643 49.184 120.067 49.184C121.187 49.184 121.699 49.888 121.699 51.424V56H123.075V51.088C123.075 49.056 122.147 47.968 120.435 47.968ZM130.116 56H134.084C136.372 56 137.684 54.848 137.684 52.832C137.684 51.376 136.996 50.4 135.7 50.032C136.596 49.616 137.092 48.752 137.092 47.648C137.092 45.888 135.844 44.848 133.7 44.848H130.116V56ZM131.54 49.568V46.16H133.7C134.948 46.16 135.668 46.8 135.668 47.888C135.668 48.944 135.012 49.568 133.844 49.568H131.54ZM131.54 54.688V50.848H134.18C135.508 50.848 136.244 51.52 136.244 52.72C136.244 53.968 135.428 54.688 133.988 54.688H131.54ZM142.675 47.968C141.299 47.968 140.227 48.496 139.347 49.616L140.339 50.448C140.963 49.616 141.715 49.184 142.643 49.184C143.843 49.184 144.515 49.856 144.515 51.072V51.392H142.771C141.443 51.392 140.659 51.52 140.067 51.84C139.427 52.192 139.075 52.832 139.075 53.664C139.075 55.184 140.147 56.144 141.843 56.144C143.027 56.144 143.971 55.664 144.531 54.816L144.627 56H145.891V51.072C145.891 49.12 144.691 47.968 142.675 47.968ZM142.163 54.992C141.107 54.992 140.451 54.496 140.451 53.728C140.451 53.328 140.595 53.024 140.851 52.816C141.187 52.56 141.731 52.464 142.931 52.464H144.515V52.544C144.515 54 143.555 54.992 142.163 54.992ZM152.262 47.968C151.19 47.968 150.262 48.416 149.734 49.184V48.112H148.358V56H149.734V52.592C149.734 50.64 150.31 49.184 151.894 49.184C153.174 49.184 153.542 50.112 153.542 51.424V56H154.918V51.088C154.918 49.056 153.99 47.968 152.262 47.968ZM160.237 54.96C159.149 54.8 158.221 54.624 158.221 53.888C158.221 53.6 158.365 53.376 158.653 53.216C159.101 53.456 159.645 53.584 160.237 53.584C161.917 53.584 163.293 52.496 163.293 50.832C163.293 50.288 163.149 49.792 162.893 49.376L163.981 48.48L163.261 47.6L162.141 48.56C161.613 48.192 160.957 47.968 160.205 47.968C158.493 47.968 157.117 49.12 157.117 50.768C157.117 51.456 157.357 52.08 157.789 52.56C157.261 52.944 156.973 53.424 156.973 54.096C156.973 54.896 157.389 55.36 157.981 55.648L156.733 56.592C156.717 56.688 156.701 56.784 156.701 56.944C156.701 58.544 158.045 59.408 160.285 59.408C162.317 59.408 163.741 58.704 163.741 57.168C163.741 55.392 161.821 55.184 160.237 54.96ZM160.221 49.12C161.261 49.12 161.917 49.808 161.917 50.8C161.917 51.744 161.293 52.464 160.221 52.464C159.133 52.464 158.493 51.728 158.493 50.8C158.493 49.808 159.213 49.12 160.221 49.12ZM160.349 58.304C159.149 58.304 158.061 58 158.061 57.024C158.061 56.992 158.061 56.96 158.077 56.896L159.021 55.984C159.325 56.048 159.645 56.096 159.949 56.144C161.197 56.336 162.365 56.448 162.365 57.296C162.365 57.984 161.549 58.304 160.349 58.304ZM167.27 56.144C167.622 56.144 168.038 56.048 168.406 55.92L168.39 54.784C168.166 54.848 167.91 54.912 167.686 54.912C167.222 54.912 167.03 54.624 167.03 54.144V44.848H165.654V54.224C165.654 55.52 166.31 56.144 167.27 56.144ZM172.925 47.968C171.549 47.968 170.477 48.496 169.597 49.616L170.589 50.448C171.213 49.616 171.965 49.184 172.893 49.184C174.093 49.184 174.765 49.856 174.765 51.072V51.392H173.021C171.693 51.392 170.909 51.52 170.317 51.84C169.677 52.192 169.325 52.832 169.325 53.664C169.325 55.184 170.397 56.144 172.093 56.144C173.277 56.144 174.221 55.664 174.781 54.816L174.877 56H176.141V51.072C176.141 49.12 174.941 47.968 172.925 47.968ZM172.413 54.992C171.357 54.992 170.701 54.496 170.701 53.728C170.701 53.328 170.845 53.024 171.101 52.816C171.437 52.56 171.981 52.464 173.181 52.464H174.765V52.544C174.765 54 173.805 54.992 172.413 54.992ZM183.148 56H187.116C189.404 56 190.716 54.848 190.716 52.832C190.716 51.376 190.028 50.4 188.732 50.032C189.628 49.616 190.124 48.752 190.124 47.648C190.124 45.888 188.876 44.848 186.732 44.848H183.148V56ZM184.572 49.568V46.16H186.732C187.98 46.16 188.7 46.8 188.7 47.888C188.7 48.944 188.044 49.568 186.876 49.568H184.572ZM184.572 54.688V50.848H187.212C188.54 50.848 189.276 51.52 189.276 52.72C189.276 53.968 188.46 54.688 187.02 54.688H184.572ZM195.706 47.968C194.33 47.968 193.258 48.496 192.378 49.616L193.37 50.448C193.994 49.616 194.746 49.184 195.674 49.184C196.874 49.184 197.546 49.856 197.546 51.072V51.392H195.802C194.474 51.392 193.69 51.52 193.098 51.84C192.458 52.192 192.106 52.832 192.106 53.664C192.106 55.184 193.178 56.144 194.874 56.144C196.058 56.144 197.002 55.664 197.562 54.816L197.658 56H198.922V51.072C198.922 49.12 197.722 47.968 195.706 47.968ZM195.194 54.992C194.138 54.992 193.482 54.496 193.482 53.728C193.482 53.328 193.626 53.024 193.882 52.816C194.218 52.56 194.762 52.464 195.962 52.464H197.546V52.544C197.546 54 196.586 54.992 195.194 54.992ZM205.294 47.968C204.222 47.968 203.294 48.416 202.766 49.184V48.112H201.39V56H202.766V52.592C202.766 50.64 203.342 49.184 204.926 49.184C206.206 49.184 206.574 50.112 206.574 51.424V56H207.95V51.088C207.95 49.056 207.022 47.968 205.294 47.968ZM210.452 56H211.828V53.68L213.444 51.952L216.052 56H217.684L214.388 51.104L217.268 48.112H215.428L211.828 51.968V44.848H210.452V56Z" fill="#FEFEFE"/>
<defs>
<filter id="filter0_d_207_225" x="-6" y="0" width="387" height="260" filterUnits="userSpaceOnUse" color-interpolation-filters="sRGB">
<feFlood flood-opacity="0" result="BackgroundImageFix"/>
<feColorMatrix in="SourceAlpha" type="matrix" values="0 0 0 0 0 0 0 0 0 0 0 0 0 0 0 0 0 0 127 0" result="hardAlpha"/>
<feOffset dy="16"/>
<feGaussianBlur stdDeviation="15"/>
<feColorMatrix type="matrix" values="0 0 0 0 0.105556 0 0 0 0 0.122338 0 0 0 0 0.266667 0 0 0 0.08 0"/>
<feBlend mode="normal" in2="BackgroundImageFix" result="effect1_dropShadow_207_225"/>
<feBlend mode="normal" in="SourceGraphic" in2="effect1_dropShadow_207_225" result="shape"/>
</filter>
<linearGradient id="paint0_linear_207_225" x1="-123" y1="316.5" x2="324.566" y2="-13.8172" gradientUnits="userSpaceOnUse">
<stop stop-color="#312984"/>
<stop offset="1" stop-color="#867BF5"/>
</linearGradient>
<linearGradient id="paint1_linear_207_225" x1="-8.17471" y1="246.5" x2="330.863" y2="-5.13207" gradientUnits="userSpaceOnUse">
<stop stop-color="#1E1D1D"/>
<stop offset="1" stop-color="#535353"/>
</linearGradient>
</defs>
</svg>
