<svg width="327" height="200" viewBox="0 0 327 200" fill="none" xmlns="http://www.w3.org/2000/svg">
<rect width="327" height="200" rx="20" fill="url(#paint0_linear_207_689)"/>
<g filter="url(#filter0_d_207_689)">
<path d="M26.736 87.344L27.648 85.52L28.544 87.344L29.456 86.704L28.128 85.248L30.032 84.96L29.68 83.904L27.952 84.672L28.208 82.848H27.104L27.36 84.672L25.632 83.904L25.28 84.96L27.168 85.248L25.84 86.704L26.736 87.344ZM34.0798 87.344L34.9918 85.52L35.8878 87.344L36.7998 86.704L35.4718 85.248L37.3758 84.96L37.0238 83.904L35.2958 84.672L35.5518 82.848H34.4478L34.7038 84.672L32.9758 83.904L32.6238 84.96L34.5118 85.248L33.1838 86.704L34.0798 87.344ZM41.4235 87.344L42.3355 85.52L43.2315 87.344L44.1435 86.704L42.8155 85.248L44.7195 84.96L44.3675 83.904L42.6395 84.672L42.8955 82.848H41.7915L42.0475 84.672L40.3195 83.904L39.9675 84.96L41.8555 85.248L40.5275 86.704L41.4235 87.344ZM48.7673 87.344L49.6793 85.52L50.5753 87.344L51.4873 86.704L50.1593 85.248L52.0633 84.96L51.7113 83.904L49.9833 84.672L50.2393 82.848H49.1353L49.3913 84.672L47.6633 83.904L47.3113 84.96L49.1993 85.248L47.8713 86.704L48.7673 87.344ZM60.486 87.344L61.398 85.52L62.294 87.344L63.206 86.704L61.878 85.248L63.782 84.96L63.43 83.904L61.702 84.672L61.958 82.848H60.854L61.11 84.672L59.382 83.904L59.03 84.96L60.918 85.248L59.59 86.704L60.486 87.344ZM67.8298 87.344L68.7418 85.52L69.6378 87.344L70.5498 86.704L69.2218 85.248L71.1258 84.96L70.7738 83.904L69.0458 84.672L69.3018 82.848H68.1978L68.4538 84.672L66.7258 83.904L66.3738 84.96L68.2618 85.248L66.9338 86.704L67.8298 87.344ZM75.1735 87.344L76.0855 85.52L76.9815 87.344L77.8935 86.704L76.5655 85.248L78.4695 84.96L78.1175 83.904L76.3895 84.672L76.6455 82.848H75.5415L75.7975 84.672L74.0695 83.904L73.7175 84.96L75.6055 85.248L74.2775 86.704L75.1735 87.344ZM82.5173 87.344L83.4293 85.52L84.3253 87.344L85.2373 86.704L83.9093 85.248L85.8133 84.96L85.4613 83.904L83.7333 84.672L83.9893 82.848H82.8853L83.1413 84.672L81.4133 83.904L81.0613 84.96L82.9493 85.248L81.6213 86.704L82.5173 87.344ZM98.611 87.344L99.523 85.52L100.419 87.344L101.331 86.704L100.003 85.248L101.907 84.96L101.555 83.904L99.827 84.672L100.083 82.848H98.979L99.235 84.672L97.507 83.904L97.155 84.96L99.043 85.248L97.715 86.704L98.611 87.344ZM105.955 87.344L106.867 85.52L107.763 87.344L108.675 86.704L107.347 85.248L109.251 84.96L108.899 83.904L107.171 84.672L107.427 82.848H106.323L106.579 84.672L104.851 83.904L104.499 84.96L106.387 85.248L105.059 86.704L105.955 87.344ZM113.299 87.344L114.211 85.52L115.107 87.344L116.019 86.704L114.691 85.248L116.595 84.96L116.243 83.904L114.515 84.672L114.771 82.848H113.667L113.923 84.672L112.195 83.904L111.843 84.96L113.731 85.248L112.403 86.704L113.299 87.344ZM120.642 87.344L121.554 85.52L122.45 87.344L123.362 86.704L122.034 85.248L123.938 84.96L123.586 83.904L121.858 84.672L122.114 82.848H121.01L121.266 84.672L119.538 83.904L119.186 84.96L121.074 85.248L119.746 86.704L120.642 87.344ZM134.377 82.848V83.792C134.377 84.448 134.009 84.64 133.449 84.64H131.593V85.728H134.377V94H135.481V82.848H134.377ZM144.109 86.848C143.421 86.72 142.717 86.832 142.141 87.04L144.717 82.848H143.469L140.109 88.448C139.757 89.024 139.533 89.744 139.533 90.432C139.533 92.464 141.245 94.128 143.325 94.128C145.421 94.128 147.117 92.448 147.117 90.416C147.117 88.624 145.789 87.152 144.109 86.848ZM143.325 93.072C141.837 93.072 140.653 91.872 140.653 90.416C140.653 88.96 141.853 87.776 143.325 87.776C144.797 87.776 145.997 88.96 145.997 90.416C145.997 91.872 144.797 93.072 143.325 93.072ZM152.387 82.72C150.291 82.72 148.595 84.4 148.595 86.432C148.595 88.224 149.923 89.696 151.603 90C152.291 90.128 152.995 90.016 153.571 89.808L150.995 94H152.243L155.603 88.4C155.955 87.824 156.179 87.104 156.179 86.416C156.179 84.384 154.467 82.72 152.387 82.72ZM152.387 89.072C150.915 89.072 149.715 87.888 149.715 86.432C149.715 84.976 150.915 83.776 152.387 83.776C153.875 83.776 155.059 84.976 155.059 86.432C155.059 87.888 153.859 89.072 152.387 89.072ZM161.483 94.16C164.027 94.16 164.923 91.504 164.923 88.448C164.923 85.392 164.011 82.688 161.371 82.688C158.475 82.688 157.915 85.776 157.915 88.432C157.915 91.088 158.507 94.16 161.483 94.16ZM161.451 93.104C159.419 93.104 159.051 90.784 159.051 88.432C159.051 86.032 159.419 83.744 161.371 83.744C163.243 83.744 163.739 85.856 163.739 88.432C163.739 90.96 163.259 93.104 161.451 93.104Z" fill="#F7F7F7"/>
<path d="M25.408 117H27.392V112.376H29.056C31.52 112.376 32.848 111.224 32.848 109.064C32.848 106.936 31.552 105.848 29.056 105.848H25.408V117ZM27.392 110.536V107.688H28.848C30.272 107.688 30.848 108.088 30.848 109.096C30.848 110.104 30.256 110.536 28.848 110.536H27.392ZM35.9898 117.16C36.3578 117.16 36.7898 117.08 37.2218 116.92V115.384C36.9978 115.448 36.7898 115.48 36.6138 115.48C36.2618 115.48 36.0538 115.336 36.0538 114.984V105.848H34.1338V115.112C34.1338 116.52 34.9178 117.16 35.9898 117.16ZM41.676 108.952C40.236 108.952 39.068 109.512 38.124 110.648L39.516 111.816C40.092 111.048 40.844 110.632 41.644 110.632C42.556 110.632 43.132 111.16 43.132 112.024V112.248H41.164C40.268 112.248 39.596 112.36 39.068 112.6C38.3 112.952 37.884 113.656 37.884 114.584C37.884 116.088 39.068 117.16 40.732 117.16C41.772 117.16 42.668 116.712 43.132 115.976L43.292 117H45.052V112.024C45.052 110.12 43.756 108.952 41.676 108.952ZM41.036 115.528C40.268 115.528 39.804 115.176 39.804 114.616C39.804 114.328 39.916 114.104 40.124 113.96C40.38 113.768 40.764 113.688 41.42 113.688H43.132C43.132 114.712 42.188 115.528 41.036 115.528ZM51.2343 110.632V109.112H49.2663V106.168L47.3463 107.592V109.112H46.0663V110.632H47.3463V114.792C47.3463 116.472 48.4663 117.16 49.7943 117.16C50.2743 117.16 50.7543 117.08 51.2343 116.92V115.384C50.8823 115.496 50.5463 115.56 50.2743 115.56C49.6503 115.56 49.2663 115.272 49.2663 114.648V110.632H51.2343ZM52.8689 107.624H54.8849V105.848H52.8689V107.624ZM52.9169 117H54.8369V109.112H52.9169V117ZM61.3771 108.952C60.4171 108.952 59.5531 109.272 58.9931 110.024V109.112H57.0731V117H58.9931V113.848C58.9931 112.44 58.9931 110.632 60.7851 110.632C62.2411 110.632 62.2411 111.848 62.2411 112.392V117H64.1611V111.912C64.1611 110.04 63.1531 108.952 61.3771 108.952ZM71.1429 109.112V112.104C71.1429 113.512 71.1429 115.48 69.3509 115.48C67.8949 115.48 67.8949 114.104 67.8949 113.56V109.112H65.9749V114.04C65.9749 115.72 66.8069 117.16 68.7909 117.16C69.7189 117.16 70.5829 116.84 71.1429 116.088V117H73.0629V109.112H71.1429ZM84.1235 108.952C83.0995 108.952 82.1875 109.32 81.5795 110.504C81.0995 109.288 80.1395 108.952 79.2755 108.952C78.4915 108.952 77.6755 109.224 77.1635 110.104V109.112H75.3075L75.3235 117H77.2435V113.992C77.2435 112.408 77.1955 110.632 78.8115 110.632C80.0595 110.632 80.1395 111.928 80.1395 112.552V117H82.0595V113.992C82.0595 112.408 81.9955 110.632 83.6115 110.632C84.8755 110.632 84.9555 111.928 84.9555 112.552V117H86.8755V111.976C86.8755 110.392 86.0275 108.952 84.1235 108.952ZM93.0955 117H95.0795V112.376H96.7435C99.2075 112.376 100.536 111.224 100.536 109.064C100.536 106.936 99.2395 105.848 96.7435 105.848H93.0955V117ZM95.0795 110.536V107.688H96.5355C97.9595 107.688 98.5355 108.088 98.5355 109.096C98.5355 110.104 97.9435 110.536 96.5355 110.536H95.0795ZM103.677 117.16C104.045 117.16 104.477 117.08 104.909 116.92V115.384C104.685 115.448 104.477 115.48 104.301 115.48C103.949 115.48 103.741 115.336 103.741 114.984V105.848H101.821V115.112C101.821 116.52 102.605 117.16 103.677 117.16ZM111.299 109.112V112.104C111.299 113.512 111.299 115.48 109.507 115.48C108.051 115.48 108.051 114.104 108.051 113.56V109.112H106.131V114.04C106.131 115.72 106.963 117.16 108.947 117.16C109.875 117.16 110.739 116.84 111.299 116.088V117H113.219V109.112H111.299ZM117.944 117.16C119.432 117.16 121.016 116.36 121.016 114.52C121.016 111.64 116.888 112.344 116.888 111.144C116.888 110.776 117.272 110.472 117.896 110.472C118.76 110.472 119.192 110.984 119.464 111.48L120.952 110.664C120.36 109.592 119.32 108.952 117.96 108.952C116.44 108.952 115.064 109.736 115.064 111.256C115.064 114.184 119.128 113.304 119.128 114.632C119.128 115.048 118.744 115.56 117.848 115.56C116.792 115.56 116.376 114.84 116.168 114.264L114.632 114.952C115.016 116.152 116.28 117.16 117.944 117.16Z" fill="#FEFEFE"/>
</g>
<path d="M25.596 171H31.994V170.076H26.59V166.492H31.448V165.568H26.59V162.166H31.994V161.242H25.596V171ZM33.2097 171H34.3997L36.3737 168.2L38.3477 171H39.5377L37.0037 167.542L39.5237 164.098H38.3477L36.3737 166.87L34.3857 164.098H33.2097L35.7297 167.542L33.2097 171ZM44.4087 163.972C43.4287 163.972 42.6447 164.35 42.1267 165.022V164.098H41.1607V173.856H42.1267V170.076C42.6307 170.72 43.4007 171.112 44.4087 171.112C46.4247 171.112 47.4747 169.6 47.4747 167.542C47.4747 165.386 46.3267 163.972 44.4087 163.972ZM44.2687 170.258C42.8127 170.258 42.0427 169.11 42.0427 167.542C42.0427 165.904 42.8827 164.826 44.2687 164.826C45.6687 164.826 46.5087 165.904 46.5087 167.542C46.5087 169.11 45.7387 170.258 44.2687 170.258ZM56.0593 171.14C58.2853 171.14 59.0693 168.816 59.0693 166.142C59.0693 163.468 58.2713 161.102 55.9613 161.102C53.4273 161.102 52.9373 163.804 52.9373 166.128C52.9373 168.452 53.4553 171.14 56.0593 171.14ZM56.0313 170.216C54.2533 170.216 53.9313 168.186 53.9313 166.128C53.9313 164.028 54.2533 162.026 55.9613 162.026C57.5993 162.026 58.0333 163.874 58.0333 166.128C58.0333 168.34 57.6133 170.216 56.0313 170.216ZM64.0603 161.242V162.068C64.0603 162.642 63.7383 162.81 63.2483 162.81H61.6243V163.762H64.0603V171H65.0263V161.242H64.0603ZM67.9717 173.954H68.8817L73.8937 161.242H72.9697L67.9717 173.954ZM76.2094 170.09C78.6874 168.536 80.8994 166.548 80.8994 164.056C80.8994 162.18 79.7094 161.102 77.9734 161.102C75.9574 161.102 74.8514 162.558 74.8514 164.476L75.8034 164.546C75.8174 163.104 76.4894 162.026 77.9734 162.026C79.2334 162.026 79.9194 162.81 79.9194 164.042C79.9194 166.632 76.8814 168.676 74.5994 170.104V171H81.3474V170.09H76.2094ZM84.1528 170.09C86.6308 168.536 88.8428 166.548 88.8428 164.056C88.8428 162.18 87.6528 161.102 85.9168 161.102C83.9008 161.102 82.7948 162.558 82.7948 164.476L83.7468 164.546C83.7608 163.104 84.4328 162.026 85.9168 162.026C87.1768 162.026 87.8628 162.81 87.8628 164.042C87.8628 166.632 84.8248 168.676 82.5428 170.104V171H89.2908V170.09H84.1528Z" fill="#FEFEFE"/>
<mask id="mask0_207_689" style="mask-type:alpha" maskUnits="userSpaceOnUse" x="0" y="0" width="327" height="200">
<rect width="327" height="200" rx="20" fill="url(#paint1_linear_207_689)"/>
</mask>
<g mask="url(#mask0_207_689)">
<g opacity="0.07">
<path d="M241.433 49.1248H229.201L236.852 0.874634H249.083L241.433 49.1248Z" fill="white"/>
<path d="M285.775 2.0542C283.363 1.07793 279.536 0 274.804 0C262.725 0 254.218 6.56989 254.166 15.9629C254.066 22.893 260.256 26.7421 264.886 29.0528C269.619 31.414 271.228 32.9552 271.228 35.0599C271.179 38.2923 267.404 39.7823 263.882 39.7823C258.998 39.7823 256.381 39.0141 252.405 37.2157L250.794 36.4448L249.083 47.2759C251.951 48.609 257.237 49.792 262.725 49.8439C275.559 49.8439 283.915 43.3756 284.014 33.3659C284.063 27.8733 280.794 23.6646 273.747 20.2254C269.468 18.0177 266.848 16.5291 266.848 14.2702C266.898 12.2167 269.064 10.1134 273.894 10.1134C277.87 10.0104 280.792 10.9853 283.005 11.9609L284.112 12.4732L285.775 2.0542Z" fill="white"/>
<path fill-rule="evenodd" clip-rule="evenodd" d="M307.67 0.874634H317.132L327 49.1241H315.674C315.674 49.1241 314.566 43.5803 314.215 41.8863H298.51C298.056 43.1689 295.943 49.1241 295.943 49.1241H283.108L301.277 4.87797C302.536 1.74653 304.753 0.874634 307.67 0.874634ZM306.916 18.5315C306.916 18.5315 303.04 29.2596 302.033 32.0315H312.2C311.697 29.6191 309.381 18.0696 309.381 18.0696L308.526 13.9121C308.166 14.9826 307.645 16.4545 307.294 17.4472C307.056 18.1203 306.896 18.5731 306.916 18.5315Z" fill="white"/>
<path d="M218.985 0.874634L207.005 33.7766L205.696 27.1037C203.482 19.4041 196.536 11.0385 188.785 6.87896L199.757 49.0736H212.692L231.919 0.874634H218.985V0.874634Z" fill="white"/>
<path d="M195.882 0.874634H176.201L176 1.84954C191.352 5.85356 201.519 15.5051 205.696 27.1058L201.418 4.9305C200.714 1.84886 198.549 0.976286 195.882 0.874634Z" fill="white"/>
</g>
</g>
<g filter="url(#filter1_d_207_689)">
<path d="M272.967 174.755H268.673L271.359 158.298H275.652L272.967 174.755Z" fill="white"/>
<path d="M288.531 158.701C287.684 158.368 286.341 158 284.68 158C280.44 158 277.454 160.241 277.436 163.444C277.401 165.808 279.574 167.121 281.199 167.909C282.86 168.714 283.424 169.24 283.424 169.958C283.407 171.06 282.082 171.568 280.846 171.568C279.132 171.568 278.213 171.306 276.818 170.693L276.252 170.43L275.652 174.124C276.659 174.579 278.514 174.982 280.44 175C284.945 175 287.878 172.794 287.912 169.38C287.93 167.507 286.782 166.071 284.309 164.898C282.807 164.145 281.887 163.638 281.887 162.867C281.905 162.167 282.665 161.449 284.36 161.449C285.756 161.414 286.781 161.747 287.558 162.079L287.947 162.254L288.531 158.701Z" fill="white"/>
<path fill-rule="evenodd" clip-rule="evenodd" d="M296.215 158.298H299.536L303 174.755H299.025C299.025 174.755 298.636 172.864 298.513 172.286H293C292.841 172.723 292.099 174.755 292.099 174.755H287.594L293.971 159.664C294.413 158.596 295.191 158.298 296.215 158.298ZM295.951 164.32C295.951 164.32 294.59 167.979 294.237 168.925H297.805C297.629 168.102 296.816 164.163 296.816 164.163L296.516 162.745C296.389 163.11 296.207 163.612 296.083 163.951C296 164.18 295.944 164.335 295.951 164.32Z" fill="white"/>
<path d="M265.087 158.298L260.883 169.52L260.423 167.244C259.646 164.618 257.208 161.765 254.487 160.346L258.339 174.737H262.879L269.627 158.298H265.087V158.298Z" fill="white"/>
<path d="M256.978 158.298H250.071L250 158.631C255.388 159.996 258.957 163.288 260.423 167.245L258.922 159.682C258.674 158.631 257.915 158.333 256.978 158.298Z" fill="white"/>
</g>
<path d="M43.9024 48H29.2683C26.3584 48 24 45.6416 24 42.7317V29.2683C24 26.3584 26.3584 24 29.2683 24H43.9024C46.8123 24 49.1707 26.3584 49.1707 29.2683V42.7317C49.1707 45.6416 46.8123 48 43.9024 48Z" fill="#E9ECF4" fill-opacity="0.05"/>
<path d="M49.1707 42.2517V42.7317C49.1707 44.6505 48.1451 46.3293 46.612 47.2507C43.4265 44.3127 37.8849 37.6115 42.7445 29.7699C43.9568 27.8142 45.5953 25.8977 46.6296 24.7598C46.9059 24.9272 47.1652 25.1192 47.4052 25.334C46.4774 27.3775 44.8647 31.6712 45.4179 35.8396C45.7644 38.4509 47.26 40.5172 49.1707 42.2517Z" fill="#5ABF73"/>
<path d="M40.1574 32.9971C38.2063 38.8034 41.5207 44.6547 44.9931 47.8865C44.6413 47.9608 44.2766 48 43.9025 48H37.2598C35.5488 45.8968 31.5226 39.6744 35.7613 31.6736C37.9295 27.5819 41.7701 25.2445 44.485 24.0322C45.0832 24.0978 45.651 24.2634 46.172 24.5122C44.4411 26.1472 41.3585 29.4229 40.1574 32.9971Z" fill="#F24976"/>
<path d="M33.0774 34.3323C31.1984 39.1417 33.0311 44.8993 35.0015 48H29.2684C28.1855 48 27.1792 47.674 26.3427 47.1132C25.9137 43.8626 25.357 36.1592 28.7199 31.0958C31.158 27.425 35.3919 25.4236 40.2885 24H43.3289C40.0719 25.4862 35.3375 28.5465 33.0774 34.3323Z" fill="#1B4399"/>
<path d="M58.8507 42H61.9387C65.6507 42 67.6827 40.064 67.6827 36.512C67.6827 32.912 65.6027 30.848 61.9547 30.848H58.8507V42ZM60.2747 40.688V32.16H61.9227C64.8187 32.16 66.2427 33.584 66.2427 36.448C66.2427 39.328 64.8187 40.688 61.8107 40.688H60.2747ZM74.9285 34.112V37.536C74.9285 39.36 74.4005 40.928 72.7525 40.928C71.2645 40.928 71.1205 39.664 71.1205 38.64V34.112H69.7445V38.976C69.7445 40.832 70.5445 42.144 72.4005 42.144C73.3925 42.144 74.3685 41.76 74.9285 40.928V42H76.3045V34.112H74.9285ZM82.583 35.232V34.112H80.647V31.216L79.271 32.24V34.112H77.975V35.232H79.271V40.032C79.271 41.52 80.167 42.144 81.303 42.144C81.719 42.144 82.151 42.064 82.583 41.92V40.752C82.231 40.864 81.911 40.928 81.639 40.928C81.015 40.928 80.647 40.608 80.647 39.888V35.232H82.583ZM87.4598 42.144C88.9318 42.144 90.0998 41.344 90.6278 39.904L89.3638 39.424C89.0918 40.368 88.3718 40.928 87.4438 40.928C85.8758 40.928 85.2038 39.568 85.2038 38.08C85.2038 36.592 85.8758 35.184 87.4438 35.184C88.3558 35.184 89.0758 35.76 89.3958 36.72L90.7078 36.192C90.0838 34.688 88.8998 33.968 87.4438 33.968C84.9958 33.968 83.7958 36 83.7958 38.08C83.7958 40.24 85.0758 42.144 87.4598 42.144ZM96.4347 33.968C95.3307 33.968 94.4187 34.416 93.8907 35.184V30.848H92.5147V42H93.8907V38.528C93.8907 36.32 94.6427 35.184 96.0667 35.184C97.1867 35.184 97.6987 35.888 97.6987 37.424V42H99.0747V37.088C99.0747 35.056 98.1467 33.968 96.4347 33.968ZM106.116 42H110.084C112.372 42 113.684 40.848 113.684 38.832C113.684 37.376 112.996 36.4 111.7 36.032C112.596 35.616 113.092 34.752 113.092 33.648C113.092 31.888 111.844 30.848 109.7 30.848H106.116V42ZM107.54 35.568V32.16H109.7C110.948 32.16 111.668 32.8 111.668 33.888C111.668 34.944 111.012 35.568 109.844 35.568H107.54ZM107.54 40.688V36.848H110.18C111.508 36.848 112.244 37.52 112.244 38.72C112.244 39.968 111.428 40.688 109.988 40.688H107.54ZM118.675 33.968C117.299 33.968 116.227 34.496 115.347 35.616L116.339 36.448C116.963 35.616 117.715 35.184 118.643 35.184C119.843 35.184 120.515 35.856 120.515 37.072V37.392H118.771C117.443 37.392 116.659 37.52 116.067 37.84C115.427 38.192 115.075 38.832 115.075 39.664C115.075 41.184 116.147 42.144 117.843 42.144C119.027 42.144 119.971 41.664 120.531 40.816L120.627 42H121.891V37.072C121.891 35.12 120.691 33.968 118.675 33.968ZM118.163 40.992C117.107 40.992 116.451 40.496 116.451 39.728C116.451 39.328 116.595 39.024 116.851 38.816C117.187 38.56 117.731 38.464 118.931 38.464H120.515V38.544C120.515 40 119.555 40.992 118.163 40.992ZM128.262 33.968C127.19 33.968 126.262 34.416 125.734 35.184V34.112H124.358V42H125.734V38.592C125.734 36.64 126.31 35.184 127.894 35.184C129.174 35.184 129.542 36.112 129.542 37.424V42H130.918V37.088C130.918 35.056 129.99 33.968 128.262 33.968ZM136.237 40.96C135.149 40.8 134.221 40.624 134.221 39.888C134.221 39.6 134.365 39.376 134.653 39.216C135.101 39.456 135.645 39.584 136.237 39.584C137.917 39.584 139.293 38.496 139.293 36.832C139.293 36.288 139.149 35.792 138.893 35.376L139.981 34.48L139.261 33.6L138.141 34.56C137.613 34.192 136.957 33.968 136.205 33.968C134.493 33.968 133.117 35.12 133.117 36.768C133.117 37.456 133.357 38.08 133.789 38.56C133.261 38.944 132.973 39.424 132.973 40.096C132.973 40.896 133.389 41.36 133.981 41.648L132.733 42.592C132.717 42.688 132.701 42.784 132.701 42.944C132.701 44.544 134.045 45.408 136.285 45.408C138.317 45.408 139.741 44.704 139.741 43.168C139.741 41.392 137.821 41.184 136.237 40.96ZM136.221 35.12C137.261 35.12 137.917 35.808 137.917 36.8C137.917 37.744 137.293 38.464 136.221 38.464C135.133 38.464 134.493 37.728 134.493 36.8C134.493 35.808 135.213 35.12 136.221 35.12ZM136.349 44.304C135.149 44.304 134.061 44 134.061 43.024C134.061 42.992 134.061 42.96 134.077 42.896L135.021 41.984C135.325 42.048 135.645 42.096 135.949 42.144C137.197 42.336 138.365 42.448 138.365 43.296C138.365 43.984 137.549 44.304 136.349 44.304ZM143.27 42.144C143.622 42.144 144.038 42.048 144.406 41.92L144.39 40.784C144.166 40.848 143.91 40.912 143.686 40.912C143.222 40.912 143.03 40.624 143.03 40.144V30.848H141.654V40.224C141.654 41.52 142.31 42.144 143.27 42.144ZM148.925 33.968C147.549 33.968 146.477 34.496 145.597 35.616L146.589 36.448C147.213 35.616 147.965 35.184 148.893 35.184C150.093 35.184 150.765 35.856 150.765 37.072V37.392H149.021C147.693 37.392 146.909 37.52 146.317 37.84C145.677 38.192 145.325 38.832 145.325 39.664C145.325 41.184 146.397 42.144 148.093 42.144C149.277 42.144 150.221 41.664 150.781 40.816L150.877 42H152.141V37.072C152.141 35.12 150.941 33.968 148.925 33.968ZM148.413 40.992C147.357 40.992 146.701 40.496 146.701 39.728C146.701 39.328 146.845 39.024 147.101 38.816C147.437 38.56 147.981 38.464 149.181 38.464H150.765V38.544C150.765 40 149.805 40.992 148.413 40.992ZM159.148 42H163.116C165.404 42 166.716 40.848 166.716 38.832C166.716 37.376 166.028 36.4 164.732 36.032C165.628 35.616 166.124 34.752 166.124 33.648C166.124 31.888 164.876 30.848 162.732 30.848H159.148V42ZM160.572 35.568V32.16H162.732C163.98 32.16 164.7 32.8 164.7 33.888C164.7 34.944 164.044 35.568 162.876 35.568H160.572ZM160.572 40.688V36.848H163.212C164.54 36.848 165.276 37.52 165.276 38.72C165.276 39.968 164.46 40.688 163.02 40.688H160.572ZM171.706 33.968C170.33 33.968 169.258 34.496 168.378 35.616L169.37 36.448C169.994 35.616 170.746 35.184 171.674 35.184C172.874 35.184 173.546 35.856 173.546 37.072V37.392H171.802C170.474 37.392 169.69 37.52 169.098 37.84C168.458 38.192 168.106 38.832 168.106 39.664C168.106 41.184 169.178 42.144 170.874 42.144C172.058 42.144 173.002 41.664 173.562 40.816L173.658 42H174.922V37.072C174.922 35.12 173.722 33.968 171.706 33.968ZM171.194 40.992C170.138 40.992 169.482 40.496 169.482 39.728C169.482 39.328 169.626 39.024 169.882 38.816C170.218 38.56 170.762 38.464 171.962 38.464H173.546V38.544C173.546 40 172.586 40.992 171.194 40.992ZM181.294 33.968C180.222 33.968 179.294 34.416 178.766 35.184V34.112H177.39V42H178.766V38.592C178.766 36.64 179.342 35.184 180.926 35.184C182.206 35.184 182.574 36.112 182.574 37.424V42H183.95V37.088C183.95 35.056 183.022 33.968 181.294 33.968ZM186.452 42H187.828V39.68L189.444 37.952L192.052 42H193.684L190.388 37.104L193.268 34.112H191.428L187.828 37.968V30.848H186.452V42Z" fill="#FEFEFE"/>
<defs>
<filter id="filter0_d_207_689" x="21.28" y="82.688" width="147.643" height="42.472" filterUnits="userSpaceOnUse" color-interpolation-filters="sRGB">
<feFlood flood-opacity="0" result="BackgroundImageFix"/>
<feColorMatrix in="SourceAlpha" type="matrix" values="0 0 0 0 0 0 0 0 0 0 0 0 0 0 0 0 0 0 127 0" result="hardAlpha"/>
<feOffset dy="4"/>
<feGaussianBlur stdDeviation="2"/>
<feComposite in2="hardAlpha" operator="out"/>
<feColorMatrix type="matrix" values="0 0 0 0 0 0 0 0 0 0 0 0 0 0 0 0 0 0 0.25 0"/>
<feBlend mode="normal" in2="BackgroundImageFix" result="effect1_dropShadow_207_689"/>
<feBlend mode="normal" in="SourceGraphic" in2="effect1_dropShadow_207_689" result="shape"/>
</filter>
<filter id="filter1_d_207_689" x="246" y="158" width="61" height="25" filterUnits="userSpaceOnUse" color-interpolation-filters="sRGB">
<feFlood flood-opacity="0" result="BackgroundImageFix"/>
<feColorMatrix in="SourceAlpha" type="matrix" values="0 0 0 0 0 0 0 0 0 0 0 0 0 0 0 0 0 0 127 0" result="hardAlpha"/>
<feOffset dy="4"/>
<feGaussianBlur stdDeviation="2"/>
<feComposite in2="hardAlpha" operator="out"/>
<feColorMatrix type="matrix" values="0 0 0 0 0 0 0 0 0 0 0 0 0 0 0 0 0 0 0.25 0"/>
<feBlend mode="normal" in2="BackgroundImageFix" result="effect1_dropShadow_207_689"/>
<feBlend mode="normal" in="SourceGraphic" in2="effect1_dropShadow_207_689" result="shape"/>
</filter>
<linearGradient id="paint0_linear_207_689" x1="-32.1747" y1="232.5" x2="306.863" y2="-19.1321" gradientUnits="userSpaceOnUse">
<stop stop-color="#1E1D1D"/>
<stop offset="1" stop-color="#535353"/>
</linearGradient>
<linearGradient id="paint1_linear_207_689" x1="-32.1747" y1="232.5" x2="306.863" y2="-19.1321" gradientUnits="userSpaceOnUse">
<stop stop-color="#1E1D1D"/>
<stop offset="1" stop-color="#535353"/>
</linearGradient>
</defs>
</svg>
