<svg width="20" height="20" viewBox="0 0 20 20" fill="none" xmlns="http://www.w3.org/2000/svg">
<g clip-path="url(#clip0_207_818)">
<path fill-rule="evenodd" clip-rule="evenodd" d="M15.3925 8.00742C15.5336 8.70751 15.8585 9.35808 16.3342 9.8932C16.63 10.333 16.8013 10.8437 16.8303 11.3718V11.5361C16.8347 12.2488 16.5793 12.9389 16.1114 13.479C15.5183 14.1132 14.7135 14.5117 13.8468 14.6005C11.2862 14.9291 8.69365 14.9291 6.13301 14.6005C5.25611 14.5185 4.44004 14.1194 3.83971 13.479C3.38642 12.9338 3.14873 12.243 3.17113 11.5361V11.3718C3.19918 10.8456 3.36523 10.3359 3.65279 9.8932C4.13063 9.35758 4.46012 8.70774 4.60893 8.00742C4.6305 7.73598 4.6305 7.46276 4.6305 7.18954C4.6305 6.91631 4.6305 6.64309 4.65207 6.37165C4.92525 3.76442 7.44141 1.96436 9.95757 1.96436H10.0295C12.5169 1.96436 15.0833 3.76442 15.3493 6.37165C15.3709 6.63952 15.3709 6.91274 15.3709 7.18686C15.3709 7.46097 15.3709 7.73598 15.3925 8.00742ZM10.9353 15.6934C11.3349 15.7052 11.7273 15.8026 12.0855 15.9791H12.1071C12.4064 16.2233 12.4572 16.6591 12.2221 16.9649C11.794 17.5775 11.109 17.9638 10.3602 18.0149C9.59076 18.1066 8.81596 17.8937 8.20345 17.422C7.88843 17.206 7.68372 16.8644 7.6427 16.4863C7.6427 16.0863 8.01653 15.9005 8.3616 15.822C8.76578 15.7368 9.17777 15.6937 9.59093 15.6934H10.9353Z" fill="#D4D8E2"/>
</g>
<defs>
<clipPath id="clip0_207_818">
<rect width="19.2857" height="19.2857" fill="white" transform="translate(0.357178 0.357178)"/>
</clipPath>
</defs>
</svg>
