<svg width="35" height="35" viewBox="0 0 35 35" fill="none" xmlns="http://www.w3.org/2000/svg">
<rect width="35" height="35" rx="12" fill="#E4F3F4"/>
<path fill-rule="evenodd" clip-rule="evenodd" d="M21.7517 21.5019V17C21.7518 16.602 21.5937 16.2202 21.3123 15.9388C21.0308 15.6573 20.6491 15.4993 20.2511 15.4994H12.7479C12.3499 15.4993 11.9682 15.6573 11.6867 15.9388C11.4053 16.2202 11.2472 16.602 11.2473 17V21.5019C11.2472 21.8999 11.4053 22.2817 11.6867 22.5631C11.9682 22.8446 12.3499 23.0026 12.7479 23.0025H20.2511C21.0798 23.0025 21.7517 22.3306 21.7517 21.5019Z" stroke="#4CA6A8" stroke-linecap="round" stroke-linejoin="round"/>
<path d="M11.2473 18.5599H21.7517" stroke="#4CA6A8" stroke-linecap="round" stroke-linejoin="round"/>
<path d="M13.6482 15.4994L14.5561 12.108C14.6591 11.7236 14.9108 11.396 15.2557 11.1976C15.6006 10.9991 16.0103 10.946 16.3943 11.05L23.6424 12.9933C24.0267 13.0963 24.3543 13.3481 24.5528 13.6929C24.7512 14.0378 24.8043 14.4475 24.7003 14.8316L23.5373 19.1759C23.3304 19.9578 22.5391 20.4332 21.7516 20.2489" stroke="#4CA6A8" stroke-linecap="round" stroke-linejoin="round"/>
</svg>
