<svg width="18" height="18" viewBox="0 0 18 18" fill="none" xmlns="http://www.w3.org/2000/svg">
<path fill-rule="evenodd" clip-rule="evenodd" d="M0 2.48481C0 1.65766 0 1.24409 0.174228 0.989C0.326466 0.766105 0.562344 0.61422 0.828256 0.567863C1.13258 0.514809 1.50908 0.685946 2.26208 1.02822L13.7577 6.25349C15.7937 7.17898 16.8118 7.64172 17.1276 8.28295C17.4021 8.84014 17.4021 9.4932 17.1276 10.0504C16.8118 10.6916 15.7937 11.1544 13.7577 12.0798L2.26209 17.3051C1.50908 17.6474 1.13258 17.8185 0.828256 17.7655C0.562344 17.7191 0.326466 17.5672 0.174228 17.3443C0 17.0892 0 16.6757 0 15.8485V14.9351C0 13.5333 0 12.8325 0.251059 12.258C0.47245 11.7515 0.829515 11.3159 1.28283 10.9995C1.7969 10.6406 2.48415 10.5032 3.85864 10.2283L9.16667 9.16667L3.85864 8.10506C2.48415 7.83016 1.7969 7.69271 1.28283 7.33387C0.829515 7.01743 0.47245 6.58188 0.251059 6.07531C0 5.50085 0 4.79999 0 3.39828V2.48481Z" fill="white"/>
</svg>
